<mxfile host="app.diagrams.net" modified="2024-01-10T17:23:41.480Z" agent="Mozilla/5.0 (Windows NT 10.0; Win64; x64) AppleWebKit/537.36 (KHTML, like Gecko) Chrome/120.0.0.0 Safari/537.36" etag="OyjXp8hrhnli_nHs3heG" version="22.1.18" type="device">
  <diagram id="YrfzH3xwVrYN7FTBeiER" name="Page-1">
    <mxGraphModel dx="882" dy="578" grid="1" gridSize="10" guides="1" tooltips="1" connect="1" arrows="1" fold="1" page="1" pageScale="1" pageWidth="850" pageHeight="1100" math="0" shadow="0">
      <root>
        <mxCell id="0" />
        <mxCell id="1" parent="0" />
        <mxCell id="7050E-QnDYIS8bZnsTW4-7" style="edgeStyle=orthogonalEdgeStyle;rounded=0;orthogonalLoop=1;jettySize=auto;html=1;exitX=0.5;exitY=0;exitDx=0;exitDy=0;entryX=0;entryY=0.5;entryDx=0;entryDy=0;" edge="1" parent="1" source="7050E-QnDYIS8bZnsTW4-1" target="7050E-QnDYIS8bZnsTW4-6">
          <mxGeometry relative="1" as="geometry" />
        </mxCell>
        <mxCell id="7050E-QnDYIS8bZnsTW4-9" style="edgeStyle=orthogonalEdgeStyle;rounded=0;orthogonalLoop=1;jettySize=auto;html=1;exitX=1;exitY=0.5;exitDx=0;exitDy=0;entryX=0;entryY=0.5;entryDx=0;entryDy=0;" edge="1" parent="1" source="7050E-QnDYIS8bZnsTW4-1" target="7050E-QnDYIS8bZnsTW4-2">
          <mxGeometry relative="1" as="geometry" />
        </mxCell>
        <mxCell id="7050E-QnDYIS8bZnsTW4-1" value="Preprocessor" style="rounded=1;whiteSpace=wrap;html=1;" vertex="1" parent="1">
          <mxGeometry x="40" y="200" width="120" height="60" as="geometry" />
        </mxCell>
        <mxCell id="7050E-QnDYIS8bZnsTW4-10" style="edgeStyle=orthogonalEdgeStyle;rounded=0;orthogonalLoop=1;jettySize=auto;html=1;exitX=1;exitY=0.5;exitDx=0;exitDy=0;entryX=0;entryY=0.5;entryDx=0;entryDy=0;" edge="1" parent="1" source="7050E-QnDYIS8bZnsTW4-2" target="7050E-QnDYIS8bZnsTW4-3">
          <mxGeometry relative="1" as="geometry" />
        </mxCell>
        <mxCell id="7050E-QnDYIS8bZnsTW4-2" value="DAG scheduler" style="rounded=1;whiteSpace=wrap;html=1;" vertex="1" parent="1">
          <mxGeometry x="200" y="200" width="120" height="60" as="geometry" />
        </mxCell>
        <mxCell id="7050E-QnDYIS8bZnsTW4-11" style="edgeStyle=orthogonalEdgeStyle;rounded=0;orthogonalLoop=1;jettySize=auto;html=1;exitX=1;exitY=0.5;exitDx=0;exitDy=0;entryX=0;entryY=0.5;entryDx=0;entryDy=0;" edge="1" parent="1" source="7050E-QnDYIS8bZnsTW4-3" target="7050E-QnDYIS8bZnsTW4-4">
          <mxGeometry relative="1" as="geometry" />
        </mxCell>
        <mxCell id="7050E-QnDYIS8bZnsTW4-3" value="Resource manager" style="rounded=1;whiteSpace=wrap;html=1;" vertex="1" parent="1">
          <mxGeometry x="360" y="200" width="120" height="60" as="geometry" />
        </mxCell>
        <mxCell id="7050E-QnDYIS8bZnsTW4-8" style="edgeStyle=orthogonalEdgeStyle;rounded=0;orthogonalLoop=1;jettySize=auto;html=1;exitX=0.5;exitY=0;exitDx=0;exitDy=0;" edge="1" parent="1" source="7050E-QnDYIS8bZnsTW4-4" target="7050E-QnDYIS8bZnsTW4-6">
          <mxGeometry relative="1" as="geometry" />
        </mxCell>
        <mxCell id="7050E-QnDYIS8bZnsTW4-12" style="edgeStyle=orthogonalEdgeStyle;rounded=0;orthogonalLoop=1;jettySize=auto;html=1;exitX=1;exitY=0.5;exitDx=0;exitDy=0;entryX=0;entryY=0.5;entryDx=0;entryDy=0;" edge="1" parent="1" source="7050E-QnDYIS8bZnsTW4-4" target="7050E-QnDYIS8bZnsTW4-5">
          <mxGeometry relative="1" as="geometry" />
        </mxCell>
        <mxCell id="7050E-QnDYIS8bZnsTW4-4" value="Task workers" style="rounded=1;whiteSpace=wrap;html=1;" vertex="1" parent="1">
          <mxGeometry x="520" y="200" width="120" height="60" as="geometry" />
        </mxCell>
        <mxCell id="7050E-QnDYIS8bZnsTW4-5" value="Encoded video" style="rounded=1;whiteSpace=wrap;html=1;" vertex="1" parent="1">
          <mxGeometry x="680" y="200" width="120" height="60" as="geometry" />
        </mxCell>
        <mxCell id="7050E-QnDYIS8bZnsTW4-6" value="Temp storage" style="rounded=1;whiteSpace=wrap;html=1;" vertex="1" parent="1">
          <mxGeometry x="520" y="40" width="120" height="60" as="geometry" />
        </mxCell>
      </root>
    </mxGraphModel>
  </diagram>
</mxfile>
